
    <svg xmlns="http://www.w3.org/2000/svg" xmlns:xlink="http://www.w3.org/1999/xlink">
      <symbol id="stop-watch" viewBox="0 0 1024 1024"><path d="M336.408 458.104l-56.56 56.568-123.424-123.416 56.568-56.56z" fill="#F6E89A" /><path d="M279.832 538.672a23.904 23.904 0 0 1-16.968-7.032L139.448 408.224a24 24 0 0 1 0-33.944l56.568-56.568a24.008 24.008 0 0 1 33.936 0l123.416 123.416a24 24 0 0 1 0 33.944L296.8 531.64a23.904 23.904 0 0 1-16.968 7.032zM190.36 391.256l89.472 89.48 22.632-22.632-89.48-89.472-22.624 22.624z" fill="#8D4520" /><path d="M242.816 359.36l25.704-25.704-56.568-56.576-113.136 113.144 56.568 56.568 31.408-31.416" fill="#F6E89A" /><path d="M155.384 470.792a24.008 24.008 0 0 1-16.968-7.024L81.848 407.2a24 24 0 0 1-0.008-33.944l113.136-113.144c9.008-9.008 24.944-9.008 33.944 0l56.568 56.568a23.984 23.984 0 0 1 0 33.936l-25.704 25.704-33.936-33.936 8.736-8.736-22.632-22.632-79.192 79.2 22.632 22.624 14.44-14.44 33.944 33.936-31.408 31.416a24.008 24.008 0 0 1-16.984 7.04z" fill="#8D4520" /><path d="M179.272 427.472a16 16 0 0 1-11.312-27.312l58.36-58.36a16 16 0 1 1 22.624 22.624l-58.36 58.36c-3.12 3.12-7.216 4.688-11.312 4.688z" fill="#8D4520" /><path d="M904.408 913.176c0 45.008-173.4 81.496-384 81.496-210.608 0-378.68-36.488-378.68-81.496 0-45.008 170.728-81.504 381.336-81.504 210.6 0.008 381.344 36.496 381.344 81.504z" fill="#B8CBCD" /><path d="M472.408 227.8h96v118.872h-96z" fill="#F6E89A" /><path d="M568.408 370.672h-96a24 24 0 0 1-24-24V227.8a24 24 0 0 1 24-24h96a24 24 0 0 1 24 24v118.872a24 24 0 0 1-24 24z m-72-48h48v-70.872h-48v70.872z" fill="#8D4520" /><path d="M838.24 334.672l56.56 56.568-123.416 123.416-56.56-56.56z" fill="#F6E89A" /><path d="M771.392 538.672a23.904 23.904 0 0 1-16.968-7.032l-56.568-56.568a24 24 0 0 1 0-33.944l123.416-123.416a24 24 0 0 1 33.936 0l56.568 56.568a24 24 0 0 1 0 33.944L788.36 531.64a23.928 23.928 0 0 1-16.968 7.032z m-22.632-80.568l22.632 22.632 89.472-89.48-22.632-22.624-89.472 89.472z" fill="#8D4520" /><path d="M525.728 638.672m-316 0a316 316 0 1 0 632 0 316 316 0 1 0-632 0Z" fill="#F6E89A" /><path d="M525.728 978.672c-187.48 0-340-152.52-340-340s152.52-340 340-340 340 152.52 340 340-152.52 340-340 340z m0-632c-161.008 0-292 130.992-292 292s130.992 292 292 292 292-130.992 292-292-130.992-292-292-292z" fill="#8D4520" /><path d="M808.408 359.36l-25.704-25.704 56.568-56.576 113.136 113.144-56.568 56.568-31.416-31.416" fill="#F6E89A" /><path d="M525.728 938.672c-186.096 0-337.496-152.52-337.496-340a24 24 0 1 1 48 0c0 161.008 129.864 292 289.496 292 159.624 0 289.496-130.992 289.496-292a24 24 0 1 1 48 0c0 187.48-151.4 340-337.496 340z" fill="#8D4520" /><path d="M895.84 470.792a24 24 0 0 1-16.976-7.032l-31.408-31.416 33.944-33.936 14.44 14.44 22.632-22.624-79.192-79.2-22.632 22.632 8.736 8.736-33.936 33.936-25.704-25.704a23.984 23.984 0 0 1 0-33.936l56.568-56.568a24 24 0 0 1 33.944 0l113.136 113.144a23.992 23.992 0 0 1-0.008 33.944l-56.568 56.568a24.08 24.08 0 0 1-16.976 7.016z" fill="#8D4520" /><path d="M472.408 250.672h-48v-80h192v80h-48" fill="#FFFFFF" /><path d="M616.408 274.672h-48v-48h24v-32h-144v32h24v48h-48a24 24 0 0 1-24-24v-80a24 24 0 0 1 24-24h192a24 24 0 0 1 24 24v80a24 24 0 0 1-24 24z" fill="#8D4520" /><path d="M376.512 377.712c-6.64 0-13.248-2.744-17.992-8.112-36.92-41.792-54.112-84.656-54.112-134.928 0-119.104 96.896-216 216-216s216 96.896 216 216c0 46.184-14.4 90.256-41.656 127.472a24 24 0 1 1-38.728-28.36 166.64 166.64 0 0 0 32.376-99.112c0-92.64-75.36-168-168-168s-168 75.36-168 168c0 38.392 12.984 70.2 42.08 103.152a23.992 23.992 0 0 1-17.968 39.888z" fill="#8D4520" /><path d="M448.408 418.672m-24 0a24 24 0 1 0 48 0 24 24 0 1 0-48 0Z" fill="#8D4520" /><path d="M448.408 418.672m-24 0a24 24 0 1 0 48 0 24 24 0 1 0-48 0Z" fill="#8D4520" /><path d="M322.512 520.784m-24 0a24 24 0 1 0 48 0 24 24 0 1 0-48 0Z" fill="#8D4520" /><path d="M291.72 679.936m-24 0a24 24 0 1 0 48 0 24 24 0 1 0-48 0Z" fill="#8D4520" /><path d="M370.416 821.648m-24 0a24 24 0 1 0 48 0 24 24 0 1 0-48 0Z" fill="#8D4520" /><path d="M521.8 879.608m-24 0a24 24 0 1 0 48 0 24 24 0 1 0-48 0Z" fill="#8D4520" /><path d="M675.024 826.712m-24 0a24 24 0 1 0 48 0 24 24 0 1 0-48 0Z" fill="#8D4520" /><path d="M758.392 687.696m-24 0a24 24 0 1 0 48 0 24 24 0 1 0-48 0Z" fill="#8D4520" /><path d="M732.904 527.616m-24 0a24 24 0 1 0 48 0 24 24 0 1 0-48 0Z" fill="#8D4520" /><path d="M610.48 421.368m-24 0a24 24 0 1 0 48 0 24 24 0 1 0-48 0Z" fill="#8D4520" /><path d="M577.176 630.08c21.048 25.592 19.56 40.88-6.032 61.928-25.592 21.048-40.88 19.56-61.936-6.032-21.048-25.592-116.8-211.304-116.8-211.304S556.128 604.48 577.176 630.08z" fill="#FFFFFF" /><path d="M540.824 722.592c-19.688 0-33.84-14.144-43.968-26.456-21.512-26.152-108.784-194.968-118.664-214.136a16 16 0 0 1 24.16-19.864c16.896 13.392 165.68 131.624 187.184 157.784 9.312 11.32 19.776 26.592 18.04 44.384-1.736 17.792-14.952 30.752-26.272 40.064-15.328 12.608-27.816 18.224-40.48 18.224z m-98.88-187.68c33.344 62.976 68.992 127.968 79.624 140.896 8.176 9.952 14.48 14.784 19.256 14.784 4.544 0 11.328-3.68 20.16-10.944 9.344-7.68 14.304-13.888 14.752-18.456 0.448-4.56-3.224-11.616-10.904-20.952-10.64-12.928-67.528-60.448-122.888-105.328zM871.952 427.472a15.92 15.92 0 0 1-11.312-4.688l-58.36-58.36a16 16 0 1 1 22.624-22.624l58.36 58.36a16 16 0 0 1-11.312 27.312zM459.904 226.672h122.504v32H459.904z" fill="#8D4520" /></symbol>
<symbol id="coconut-tree" viewBox="0 0 1024 1024"><path d="M948.1 702c-13.8 0-20.7-9.8-25.7-17-5.1-7.3-7.7-10.2-12.7-10.2s-7.5 3-12.7 10.2c-5.1 7.2-12 17-25.7 17s-20.7-9.8-25.7-17c-5.1-7.3-7.7-10.2-12.7-10.2-5 0-7.5 3-12.7 10.2-5.1 7.2-12 17-25.7 17-13.8 0-20.7-9.8-25.7-17-5.1-7.3-7.7-10.2-12.7-10.2-4.4 0-8-3.6-8-8s3.6-8 8-8c13.8 0 20.7 9.8 25.7 17 5.1 7.3 7.7 10.2 12.7 10.2 5 0 7.5-3 12.7-10.2 5.1-7.2 12-17 25.7-17 13.8 0 20.7 9.8 25.7 17 5.1 7.3 7.7 10.2 12.7 10.2 5 0 7.5-3 12.7-10.2 5.1-7.2 12-17 25.7-17s20.7 9.8 25.7 17c5.1 7.3 7.7 10.2 12.7 10.2 4.4 0 8 3.6 8 8s-3.6 8-8 8zM948.1 652c-13.8 0-20.7-9.8-25.7-17-5.1-7.3-7.7-10.2-12.7-10.2s-7.5 3-12.7 10.2c-5.1 7.2-12 17-25.7 17s-20.7-9.8-25.7-17c-5.1-7.3-7.7-10.2-12.7-10.2-5 0-7.5 3-12.7 10.2-5.1 7.2-12 17-25.7 17-13.8 0-20.7-9.8-25.7-17-5.1-7.3-7.7-10.2-12.7-10.2-4.4 0-8-3.6-8-8s3.6-8 8-8c13.8 0 20.7 9.8 25.7 17 5.1 7.3 7.7 10.2 12.7 10.2 5 0 7.5-3 12.7-10.2 5.1-7.2 12-17 25.7-17 13.8 0 20.7 9.8 25.7 17 5.1 7.3 7.7 10.2 12.7 10.2 5 0 7.5-3 12.7-10.2 5.1-7.2 12-17 25.7-17s20.7 9.8 25.7 17c5.1 7.3 7.7 10.2 12.7 10.2 4.4 0 8 3.6 8 8s-3.6 8-8 8z" fill="#9A2D2F" /><path d="M339.1 102.3m-32 0a32 32 0 1 0 64 0 32 32 0 1 0-64 0Z" fill="#FFEB4D" /><path d="M922.4 958.3h-824c-4.4 0-8-3.6-8-8s3.6-8 8-8h824c4.4 0 8 3.6 8 8s-3.6 8-8 8z" fill="#9A2D2F" /><path d="M486.6 270.2l22.8 2.1-37.3 678h-74.9z" fill="#FFD7F5" /><path d="M496.5 297.9l6.5-57.4s-169.2-39.8-254.6-4.9c-66.6 27.2-91.1 89.4-91.4 145.8 0 8.1 60.3-161.6 339.5-83.5z" fill="#FFACC2" /><path d="M498.7 275l4.9-39.6s-88.2-111.7-187.5-102.6c-84.2 7.8-117.6 55.9-137.6 91.1-10.3 18.2 150.8-107.3 320.2 51.1z" fill="#FFEB4D" /><path d="M498.8 297.8l-2.5-57.7s156.7-33.6 246.4 18.6c74 43.1 92.5 90 88.9 146.2-0.5 8.1-52.8-153.4-332.8-107.1z" fill="#DAE5FF" /><path d="M498.3 274.8l-2.1-39.8s98-95.9 197.1-85.7c82.4 8.5 110.5 60.6 128 97.1 9 18.8-142.9-117.7-323 28.4z" fill="#A7F9CE" /><path d="M689 878.3m-48 0a48 48 0 1 0 96 0 48 48 0 1 0-96 0Z" fill="#A7F9CE" /><path d="M765 950.3h-96v-16c0-26.4 21.6-48 48-48s48 21.6 48 48v16z" fill="#F7D4FF" /><path d="M699 949.9H571v-32c0-35.2 28.8-64 64-64s64 28.8 64 64v32z" fill="#FFACC2" /><path d="M744.5 885.6c0.3-2.4 0.5-4.8 0.5-7.3 0-30.9-25.1-56-56-56-19 0-35.8 9.5-45.9 24-2.6-0.3-5.3-0.5-8.1-0.5-39.7 0-72 32.3-72 72v32c0 4.4 3.6 8 8 8h95.4c0.8 0.3 1.7 0.4 2.6 0.4h96c4.4 0 8-3.6 8-8v-16c0-20.8-11.5-39-28.5-48.6zM689 838.3c22.1 0 40 17.9 40 40v1.3c-3.9-0.8-7.9-1.3-12-1.3-6.9 0-13.6 1.3-19.7 3.6-8.3-14.3-21.4-25.5-37-31.4 7.3-7.5 17.5-12.2 28.7-12.2z m-28 103.6h-82v-24c0-30.9 25.1-56 56-56h0.5c5.6 0 11 0.9 16.1 2.5 13.5 4.2 24.8 13.3 31.8 25.2 2.8 4.8 4.9 10.1 6.2 15.6 0.9 4.1 1.5 8.3 1.5 12.6v24H661z m96 0.4h-50v-24.4c0-1.3 0-2.6-0.1-3.8-0.3-6.1-1.4-11.9-3.1-17.5 4.1-1.5 8.6-2.3 13.2-2.3 2.8 0 5.6 0.3 8.3 0.9 5.4 1.1 10.3 3.3 14.7 6.4 10.3 7.2 17.1 19.2 17.1 32.7v8z" fill="#9A2D2F" /><path d="M316.8 140.8c-27.1 2.5-50.2 9.3-70 20.8 7.9 0.1 16.6-0.7 26.2-2.8 20.7-4.5 35 19.5 66.1 22 37 2.9 44.4-13.5 79.4 4.5 12 6.1 21.4 7.4 28.9 5.9-1.8-1.5-3.6-2.9-5.5-4.4-30.2-23.4-76.5-50.5-125.1-46zM562 195c-11.6 7.1-21.9 14.4-30.7 21 16.1 0.2 35.5-4.1 51.7-17.8 44-37.1 78-13.3 92-25.3 4.1-3.5 8.4-9.4 12.5-15.9-47.2-3.2-94.1 18.7-125.5 38z" fill="#FFFFFF" /><path d="M822.2 325.1c-14.7-26.5-39.8-49.8-76.5-71.2-32.4-18.9-75.9-29-129.7-30.3 24.8-6.2 50.1-8.4 75.6-6.5 53.1 4 93.4 24.9 112.7 34.8 3.8 1.9 6.8 3.5 9.1 4.5 2.4 1.1 8.2 3.6 12.6-0.7 1.1-1 4.3-4.8 1.4-10.8-9.4-19.5-21-42-41.3-61.4-24.2-23.1-54.6-36.3-93-40.2-42.3-4.4-91 9.5-140.8 40.1-23.4 14.4-41.8 29.2-52.5 38.4-9.7-10.8-26.7-28.3-48.9-45.5-28.8-22.4-57.7-37.4-85.7-44.8 7.9-7.3 12.8-17.7 12.8-29.3 0-22.1-17.9-40-40-40s-40 17.9-40 40c0 9.6 3.4 18.4 9.1 25.4-27.7 3.4-52.1 11.6-73 24.3-3.4-2-7.5-3.3-12.6-3.3-13.8 0-20.7 9.8-25.7 17-5.1 7.3-7.7 10.2-12.7 10.2-5 0-7.5-3-12.7-10.2-5.1-7.2-12-17-25.7-17s-20.7 9.8-25.7 17c-5.1 7.3-7.7 10.2-12.7 10.2s-7.5-3-12.7-10.2c-5.1-7.2-12-17-25.7-17-4.4 0-8 3.6-8 8s3.6 8 8 8c5 0 7.5 3 12.7 10.2 5.1 7.2 12 17 25.7 17s20.7-9.8 25.7-17c5.1-7.3 7.7-10.2 12.7-10.2s7.5 3 12.7 10.2c5.1 7.2 12 17 25.7 17 3 0 5.6-0.5 7.9-1.3-8.3 10.7-15 21.4-20.6 31.4-0.6 1-1 2-1.2 2.9-3.3-0.4-5.5-3.4-9.5-9.8-4.6-7.3-10.9-17.4-23.8-17.4s-19.2 10.1-23.8 17.4c-4.3 6.9-6.5 9.9-10.2 9.9s-5.9-3-10.2-9.9c-4.6-7.3-10.9-17.4-23.8-17.4-4.4 0-8 3.6-8 8s3.6 8 8 8c3.7 0 5.9 3 10.2 9.9 4.6 7.3 10.9 17.4 23.8 17.4s19.2-10.1 23.8-17.4c4.3-6.9 6.5-9.9 10.2-9.9s5.9 3 10.2 9.9c4.6 7.3 10.9 17.4 23.8 17.4 7.5 0 12.7-3.3 16.7-7.6 1.8-0.7 3.9-1.6 6.3-2.7 20-8.6 61.7-26.5 114.9-26.8h1.4c26.8 0 53 4.5 78.5 13.5-62-4.9-110.2-0.5-143.4 13-32.7 13.3-57.7 35.4-74.5 65.5-14.1 25.3-21.7 55.6-21.9 87.6 0 3.8 2.4 7.1 6 8 0.8 0.2 1.6 0.3 2.4 0.3 4.6 0 7-4.1 8.8-7.3 18.1-31 43.9-55.2 76.7-71.7 28.3-14.3 61.2-22.7 98.1-24.9 40-2.4 84.9 2.5 133.7 14.5l-85.3 645.9c-0.3 2.3 0.4 4.6 1.9 6.3 1.5 1.7 3.7 2.7 6 2.7h74.9c4.2 0 7.8-3.3 8-7.6l35.7-644.4c95.7-13.6 173.8-3.7 232.5 29.5 48 27.2 67.5 61.6 73.9 72.9 2 3.5 4.4 7.7 9 7.7 0.6 0 1.3-0.1 2-0.2 3.5-0.8 6.1-3.9 6.3-7.6 2.2-32.4-3-58.6-16.3-82.4zM338.1 78.3c13.2 0 24 10.8 24 24s-10.8 24-24 24-24-10.8-24-24 10.7-24 24-24z m-28.7 109.5h-1.5c-49.7 0.3-89.5 14.9-112.7 24.5 8.2-12.3 18.5-24.9 32.1-36 23.6-19.2 52.6-30.2 88.6-33.5 48.6-4.5 94.8 22.5 125 46 20.2 15.7 36.2 31.9 45.7 42.3 0.6 0.6 1.7 1.9 1.7 1.9v25c-0.1-0.1-0.2-0.1-0.3-0.2-5.5-4.6-11-9-16.6-13.2-10.8-8.1-21.8-15.3-32.9-21.6-41-23.4-84.1-35.2-129.1-35.2z m-74.8 110.7c-27.2 13.8-50 32.4-68.1 55.5 3.1-18.3 8.9-35.3 17.3-50.4 15-26.8 37.4-46.5 66.6-58.5 24.9-10.2 57.5-13.7 91-13.7 31.9 0 64.5 3.2 91.8 7 15.2 8.9 30.1 19.5 44.7 31.8 3.7 3.1 7.4 6.4 11 9.7l-0.3 9.9c-4.4-1.2-8.7-2.2-13-3.3-97.2-23.8-178.2-19.8-241 12z m228.9 642.8h-58.2l83.9-634.8c1.4 0.4 2.8 0.7 4.2 1.1 1.2 0.3 2.4 0.4 3.6 0.1h1.6l-35.1 633.6zM510 234.4s2.8-2.4 4.4-3.7c10.6-8.9 26.9-21.5 46.7-33.7 32.5-20 81.6-42.7 130.4-37.7 63.8 6.6 93 39.6 112.3 74.4-22.4-11.2-61.1-28.7-110.9-32.5-43.9-3.4-86.8 4.6-128.4 23.8-12.3 5.7-24.5 12.3-36.5 19.9-6.6 4.2-13.1 8.6-19.6 13.3-0.1 0.1-0.2 0.1-0.3 0.2l1.9-24z m245.1 86.5c-44.1-25-98.3-37.5-161.7-37.5-24.5 0-50.5 1.9-77.8 5.6l-10.2 1.5 0.4-10.3c3.4-2.7 6.9-5.4 10.3-7.9 17.2-12.6 34.6-23.1 52.3-31.5 51.9-3.5 121.1-1.2 169.3 26.9 34.2 19.9 57.3 41.2 70.6 65.2 7.9 14.2 12.5 29.5 14.1 46.9-12.3-16.8-33.1-39.6-67.3-58.9z" fill="#9A2D2F" /><path d="M532.1 437.5l15.9 1.3-26.2 511h-52.5z" fill="#DAE5FF" /><path d="M538.9 458.8l4.6-40.2s-118.5-27.8-178.4-3.4c-46.6 19-63.8 62.6-64.1 102 0 5.7 42.3-113.1 237.9-58.4z" fill="#FFACC2" /><path d="M540.4 442.7l3.4-27.7s-61.8-78.2-131.4-71.8c-59 5.4-82.4 39.2-96.4 63.8-7.2 12.7 105.7-75.2 224.4 35.7z" fill="#FFEB4D" /><path d="M540.5 458.7l-1.7-40.4s109.8-23.6 172.7 13c51.9 30.2 64.8 63 62.3 102.4-0.4 5.6-37.1-107.5-233.3-75z" fill="#DAE5FF" /><path d="M540.1 442.6l-1.5-27.9s68.6-67.1 138.1-60c57.7 6 77.4 42.4 89.7 68 6.4 13.1-100.1-82.4-226.3 19.9z" fill="#A7F9CE" /><path d="M770 475.2c-10.5-19-28.4-35.6-54.5-50.8-21.1-12.3-47-18.2-72.3-20.5 52.7-6.8 93.5 14.2 111.1 23.3 2.7 1.4 4.8 2.5 6.5 3.2 1.8 0.8 7.2 3.2 11.5-1 2.1-2.1 3.6-5.9 1.5-10.4-6.6-13.9-15-29.8-29.5-43.6-17.1-16.3-39.5-26-66.6-28.8-30.2-3.1-64.8 6.7-100.1 28.4-15.3 9.4-27.6 19-35.3 25.6-7.1-7.7-18.5-19.2-33-30.4-33.2-25.8-66.9-38-97.4-35.2-67.6 6.2-92.2 49.4-102.7 67.8-2.5 4.3-1.2 8.2 0.7 10.4 4 4.4 9.5 2.4 11.4 1.8 1.7-0.6 3.9-1.6 6.7-2.8 18.4-7.9 61.2-26.3 113.9-15.2-28.6-0.8-57.7 1.5-79.7 10.5-23.4 9.6-41.4 25.3-53.4 46.9-10.1 18.1-15.5 39.7-15.7 62.5 0 3.8 2.4 7 5.9 8 0.8 0.2 1.6 0.3 2.4 0.3 4.5 0 6.8-4 8.2-6.3 12.5-21.3 30.2-37.9 52.8-49.3 40.8-20.7 94.2-23.2 158.7-7.6l-59.6 486.5c-0.3 2.3 0.4 4.6 1.9 6.3s3.7 2.7 6 2.7h52.5c4.3 0 7.8-3.3 8-7.6l24.9-485.6c65.6-9 119.2-2.1 159.5 20.6 33.1 18.7 46.5 42.3 50.9 50.1 1.4 2.5 3.7 6.6 8.4 6.6 0.6 0 1.3-0.1 2-0.2 3.5-0.8 6-3.8 6.3-7.5 1.3-22.8-2.5-41.6-11.9-58.7z m-94-112.5c39.4 4.1 59.5 22.9 72.8 44.1-16.3-7.7-41-17.2-71.4-19.5-30.9-2.4-61.2 3.2-90.6 16.6-12 5.5-23.8 12.3-35.5 20.3-0.2 0.1-0.3 0.2-0.5 0.3l-0.1 0.1s0.7-7.7 1-10.9c2.4-2 5.3-4.5 8.7-7.1C584.1 388 630.3 358 676 362.7z m-267.5 15.2h-1.1c-30.3 0.2-55.4 7.8-72.3 14.3 4.8-6.3 10.4-12.5 17.3-18.1 16.2-13.2 36-20.7 60.8-22.9 47.3-4.4 91.9 34.4 112.5 55.6 2 2.1 3.8 3.9 5.3 5.6 0.1 3.9 0.1 11.7 0.1 11.7-10.3-8.3-20.8-15.5-31.5-21.6-28.9-16.4-59.4-24.6-91.1-24.6zM355 455.6c-16.4 8.3-30.5 19-42.3 32.1 5.8-23.2 20.3-50.8 55.4-65.1 17.2-7 39.7-9.5 62.8-9.5 22 0 44.6 2.2 63.5 4.8 9.7 5.7 19.5 12.6 29.4 20.8 2.7 2.2 5.4 4.6 8.1 7l0.1 2.6v0.2c-3.1-0.8-6.1-1.5-9.1-2.2-67.5-16-123.9-12.9-167.9 9.3z m159.2 486.2h-35.8l58.2-475.4h0.2c0.6 0.2 1.2 0.2 1.7 0.3l-24.3 475.1zM722 471.3c-31.3-17.7-69.6-26.5-114.5-26.5-16.5 0-33.8 1.2-52 3.6-2.4 0.3-4.9 0.7-7.4 1l0.3-3.1c2.5-2 5-3.9 7.5-5.7 11.8-8.6 23.4-15.5 34.7-20.9 35.9-2.4 83.7-0.7 116.8 18.5C731 452 746.9 466.6 756 483c4 7.2 6.8 14.8 8.4 23.1-9.1-10.8-22.6-23.6-42.4-34.8z" fill="#9A2D2F" /></symbol>
<symbol id="coding" viewBox="0 0 512.004 512.004">
  <defs>
    <path id="coding-a" style="fill:#B0B6BB;" d="M351.108,467.864H160.9c-1.977,0-2.754-2.71-1.095-3.858l15.925-11.237   c17.196-12.129,25.318-34.348,20.303-55.526h119.949l-0.009,0.018c-5.005,21.177,3.125,43.405,20.321,55.526l15.916,11.22   C353.862,465.163,353.085,467.864,351.108,467.864" />
    <path id="coding-b" style="fill:#E8EDEE;" d="M481.121,397.243H30.888C13.833,397.243,0,383.419,0,366.364V39.708   C0,22.653,13.833,8.829,30.888,8.829h450.233C498.176,8.829,512,22.653,512,39.708v326.656   C512,383.419,498.176,397.243,481.121,397.243" />
    <path id="coding-c" style="fill:#ED7161;" d="M512.004,317.795h-512V39.708c0-17.055,13.824-30.879,30.879-30.879h450.242   c17.055,0,30.879,13.824,30.879,30.879V317.795z" />
    <path id="coding-d" style="fill:#E8EDEE;" d="M353.107,503.174H158.9c-9.754,0-17.655-7.901-17.655-17.655s7.901-17.655,17.655-17.655h194.207   c9.754,0,17.655,7.901,17.655,17.655S362.861,503.174,353.107,503.174" />
    <path id="coding-e" style="fill:#FFFFFF;" d="M203.159,247.174c-2.26,0-4.52-0.865-6.241-2.586l-70.144-70.144    c-1.05-0.883-1.907-2.022-2.454-3.337c-1.359-3.301-0.671-7.097,1.854-9.622l70.682-70.682c3.452-3.443,9.039-3.443,12.482,0    c3.452,3.452,3.452,9.039,0,12.482l-64.38,64.38l64.441,64.441c3.452,3.452,3.452,9.031,0,12.482    C207.679,246.309,205.419,247.174,203.159,247.174" />
    <path id="coding-f" style="fill:#FFFFFF;" d="M309.154,247.234c-2.26,0-4.52-0.865-6.241-2.586c-3.452-3.452-3.452-9.031,0-12.482l64.371-64.38    l-64.433-64.441c-3.452-3.443-3.452-9.031,0-12.482c3.443-3.443,9.031-3.443,12.482,0l70.135,70.135    c1.059,0.892,1.916,2.03,2.463,3.346c1.368,3.302,0.671,7.097-1.854,9.622l-70.682,70.682    C313.674,246.369,311.414,247.234,309.154,247.234" />
    <path id="coding-g" style="fill:#FFFFFF;" d="M238.477,247.174c-0.715,0-1.43-0.079-2.154-0.265c-4.723-1.183-7.601-5.976-6.418-10.708    l35.31-141.241c1.183-4.723,5.994-7.601,10.708-6.418c4.723,1.183,7.601,5.976,6.418,10.708l-35.31,141.241    C246.025,244.499,242.432,247.174,238.477,247.174" />
  </defs>

  <g>
    <use xlink:href="#coding-a" />
    <use xlink:href="#coding-b" />
    <use xlink:href="#coding-c" />
    <use xlink:href="#coding-d" />
    <use xlink:href="#coding-e" />
    <use xlink:href="#coding-f" />
    <use xlink:href="#coding-g" />
  </g>
</symbol>
<symbol id="settings" viewBox="0 0 512 512">
  <defs>
    <mask id="settings-circle-mask">
      <rect width="512" height="512" fill="white" />
      <circle cx="108" cy="108" r="25" fill="black" />
    </mask>
    
    <path id="settings-a" style="fill:#ECBA16;" d="M512,308.471V203.529c0-0.274-0.221-0.494-0.494-0.494h-5.711c-19.88,0-37.8-11.979-45.4-30.349 l-0.962-2.33c-7.601-18.361-3.39-39.495,10.664-53.539l4.025-4.025c0.194-0.194,0.194-0.512,0-0.706l-74.205-74.205 c-0.194-0.194-0.503-0.194-0.697,0l-4.034,4.034c-14.045,14.045-35.178,18.255-53.53,10.664l-2.339-0.971 c-18.37-7.592-30.349-25.521-30.349-45.4V0.494c0-0.274-0.221-0.494-0.494-0.494H203.529c-0.274,0-0.494,0.221-0.494,0.494v5.711 c0,19.88-11.979,37.809-30.349,45.4l-2.339,0.971c-18.353,7.592-39.486,3.381-53.53-10.664l-4.034-4.034 c-0.194-0.194-0.503-0.194-0.697,0l-74.205,74.205c-0.194,0.194-0.194,0.512,0,0.706l4.025,4.025 c14.054,14.045,18.264,35.178,10.664,53.539l-0.962,2.33c-7.601,18.37-25.521,30.349-45.4,30.349H0.494 c-0.274,0-0.494,0.221-0.494,0.494v104.942c0,0.274,0.221,0.494,0.494,0.494h5.711c19.88,0,37.8,11.988,45.4,30.358l0.468,1.121 c7.892,19.094,3.522,41.057-11.087,55.667l-3.107,3.107c-0.194,0.194-0.194,0.503,0,0.697l74.205,74.205 c0.194,0.194,0.503,0.194,0.697,0l3.107-3.099c14.61-14.61,36.573-18.988,55.667-11.096l0,0 c19.05,7.883,31.479,26.465,31.479,47.086v4.493c0,0.274,0.221,0.494,0.494,0.494h104.942c0.274,0,0.494-0.221,0.494-0.494v-4.493 c0-20.621,12.429-39.203,31.479-47.086l0,0c19.094-7.892,41.057-3.513,55.667,11.096l3.107,3.099c0.194,0.194,0.503,0.194,0.697,0 l74.205-74.205c0.194-0.194,0.194-0.503,0-0.697l-4.025-4.034c-14.053-14.045-18.264-35.169-10.664-53.53l0.962-2.331 c7.601-18.37,25.521-30.358,45.4-30.358h5.711C511.779,308.966,512,308.745,512,308.471"/>
    <path id="settings-b" style="fill:#FFFFFF;" d="M414.897,256.002c0-87.755-71.141-158.897-158.897-158.897S97.103,168.247,97.103,256.002 S168.245,414.898,256,414.898S414.897,343.757,414.897,256.002"/>
    <path id="settings-c" style="fill:#42B05C;" d="M256,370.76c-4.882,0-8.828-3.955-8.828-8.828V150.071c0-4.873,3.946-8.828,8.828-8.828 c4.882,0,8.828,3.955,8.828,8.828v211.862C264.828,366.806,260.882,370.76,256,370.76"/>
    <path id="settings-d" style="fill:#42B05C;" d="M256,353.105c-21.813,0-40.413-7.645-51.041-20.974c-3.037-3.822-2.419-9.375,1.404-12.412 c3.814-3.046,9.366-2.41,12.403,1.395c7.15,8.978,21.071,14.336,37.235,14.336c21.222,0,44.138-13.497,44.138-35.31 c0-21.124-22.819-35.31-44.138-35.31c-29.714,0-61.793-20.25-61.793-52.966s32.079-52.966,61.793-52.966 c22.131,0,40.263,7.45,51.041,20.974c3.037,3.822,2.419,9.375-1.404,12.412c-3.814,3.046-9.366,2.401-12.403-1.395 c-7.362-9.242-20.586-14.336-37.235-14.336c-21.319,0-44.138,14.186-44.138,35.31c0,21.813,22.916,35.31,44.138,35.31 c29.714,0,61.793,20.25,61.793,52.966S285.714,353.105,256,353.105"/>
    <path id="settings-e" style="fill:#42B05C;" d="M300.138,220.691c-4.882,0-8.828-3.955-8.828-8.828v-52.966c0-4.873,3.946-8.828,8.828-8.828 c4.882,0,8.828,3.955,8.828,8.828v52.966C308.966,216.737,305.02,220.691,300.138,220.691"/>
    <path id="settings-f" style="fill:#42B05C;" d="M211.862,361.933c-4.882,0-8.828-3.955-8.828-8.828V300.14c0-4.873,3.946-8.828,8.828-8.828 s8.828,3.955,8.828,8.828v52.966C220.69,357.978,216.744,361.933,211.862,361.933"/>
  </defs>
  <g mask="url(#settings-circle-mask)">
    <use xlink:href="#settings-a"/>
    <use xlink:href="#settings-b"/>
    <use xlink:href="#settings-c"/>
    <use xlink:href="#settings-d"/>
    <use xlink:href="#settings-e"/>
    <use xlink:href="#settings-f"/>
  </g>
</symbol>
    </svg>
  